<svg width="24" height="24" viewBox="0 0 24 24" fill="none" xmlns="http://www.w3.org/2000/svg">
<path d="M14.5098 4C14.7551 4 14.878 3.99975 14.9912 4.0127C15.583 4.08048 16.1142 4.4092 16.4395 4.9082C16.5017 5.00375 16.5572 5.11341 16.667 5.33301L17.4873 6.97461C17.8013 7.60263 18.4434 7.99985 19.1455 8C20.1695 8 21 8.8305 21 9.85449V14.8574C21 16.8618 20.9997 17.8639 20.54 18.5957C20.3003 18.9773 19.9773 19.3003 19.5957 19.54C18.8639 19.9997 17.8618 20 15.8574 20H8.14258C6.13821 20 5.13605 19.9997 4.4043 19.54C4.02269 19.3003 3.69974 18.9773 3.45996 18.5957C3.00029 17.8639 3 16.8618 3 14.8574V9.85449C3 8.8305 3.8305 8 4.85449 8C5.55662 7.99985 6.19868 7.60263 6.5127 6.97461L7.33301 5.33301C7.44281 5.11341 7.49829 5.00375 7.56055 4.9082C7.88583 4.4092 8.417 4.08048 9.00879 4.0127C9.12205 3.99975 9.24493 4 9.49023 4H14.5098ZM12 9C9.79086 9 8 10.7909 8 13C8 15.2091 9.79086 17 12 17C14.2091 17 16 15.2091 16 13C16 10.7909 14.2091 9 12 9ZM12 11C13.1046 11 14 11.8954 14 13C14 14.1046 13.1046 15 12 15C10.8954 15 10 14.1046 10 13C10 11.8954 10.8954 11 12 11Z" fill="white"/>
</svg>
