<svg width="118" height="118" viewBox="0 0 118 118" fill="none" xmlns="http://www.w3.org/2000/svg">
<path d="M36.6869 31.7767C37.0376 22.6711 44.6161 14.9304 54.7816 15.1668C57.1466 15.2214 60.0705 16.0424 65.9184 17.6843C79.9923 21.6354 92.2137 28.2899 95.1622 43.2271C95.7042 45.9729 95.708 49.0635 95.7155 55.2443L95.7256 63.4777C95.7331 69.6584 95.7369 72.7489 95.2016 75.4959C92.2895 90.4403 80.0844 97.1246 66.0201 101.11C60.1763 102.766 57.2544 103.594 54.8895 103.655C44.7246 103.916 37.1273 96.1942 36.7543 87.0892" stroke="#163300" stroke-width="8.5" stroke-linecap="round"/>
<path d="M9.66663 59.4028H63.75M9.66663 59.4028C9.66663 55.9601 19.4719 49.5278 21.9583 47.1111M9.66663 59.4028C9.66663 62.8454 19.4719 69.2779 21.9583 71.6944" stroke="#163300" stroke-width="8.5" stroke-linecap="round" stroke-linejoin="round"/>
</svg>
