<svg width="15" height="21" viewBox="0 0 15 21" fill="none" xmlns="http://www.w3.org/2000/svg">
  <path fill-rule="evenodd" clip-rule="evenodd" d="M7.5 0C11.6507 0 15 3.39351 15 7.56055C15 9.95042 13.89 12.4974 12.6494 14.624C11.3924 16.7788 9.9182 18.6398 9.03223 19.6885C8.22533 20.6434 6.77461 20.6435 5.96777 19.6885C5.0818 18.6398 3.60861 16.7788 2.35156 14.624C1.11094 12.4974 0 9.95051 0 7.56055C2.08971e-05 3.39357 3.34942 8.99732e-05 7.5 0ZM7.6416 2.55273C4.98767 2.55294 2.83594 4.70445 2.83594 7.3584C2.83601 10.0123 4.98772 12.1639 7.6416 12.1641C10.2957 12.1641 12.4472 10.0124 12.4473 7.3584C12.4473 4.70432 10.2957 2.55273 7.6416 2.55273ZM7.6416 4.50586C9.21681 4.50586 10.4941 5.78321 10.4941 7.3584C10.4941 8.93353 9.21676 10.21 7.6416 10.21C6.06662 10.2098 4.79011 8.9334 4.79004 7.3584C4.79004 5.78333 6.06657 4.50606 7.6416 4.50586Z" fill="white"/>
  <!-- Diagonal slash line (off indicator) -->
  <line x1="1.5" y1="1" x2="13.5" y2="20" stroke="white" stroke-width="1.8" stroke-linecap="round"/>
</svg>
