<svg width="30" height="34" viewBox="0 0 30 34" fill="none" xmlns="http://www.w3.org/2000/svg">
<path d="M23.75 13.25V9.75C23.75 4.91751 19.8325 1 15 1C10.1675 1 6.25 4.91751 6.25 9.75V13.25M15 21.125V24.625M9.4 32.5H20.6C23.5403 32.5 25.0104 32.5 26.1335 31.9278C27.1213 31.4244 27.9244 30.6213 28.4278 29.6334C29 28.5104 29 27.0403 29 24.1V21.65C29 18.7097 29 17.2396 28.4278 16.1165C27.9244 15.1287 27.1213 14.3256 26.1335 13.8222C25.0104 13.25 23.5403 13.25 20.6 13.25H9.4C6.45972 13.25 4.98959 13.25 3.86655 13.8222C2.8787 14.3256 2.07555 15.1287 1.57222 16.1165C1 17.2396 1 18.7097 1 21.65V24.1C1 27.0403 1 28.5104 1.57222 29.6334C2.07555 30.6213 2.8787 31.4244 3.86655 31.9278C4.98959 32.5 6.45972 32.5 9.4 32.5Z" stroke="#2563C8" stroke-width="2" stroke-linecap="round" stroke-linejoin="round"/>
</svg>
