<svg width="37" height="30" viewBox="0 0 37 30" fill="none" xmlns="http://www.w3.org/2000/svg">
<path d="M1.00012 6.25L15.2887 16.252C16.4458 17.062 17.0243 17.4669 17.6536 17.6238C18.2094 17.7623 18.7908 17.7623 19.3467 17.6238C19.9759 17.4669 20.5545 17.062 21.7115 16.252L36.0001 6.25M9.40012 29H27.6001C30.5404 29 32.0105 29 33.1336 28.4278C34.1214 27.9244 34.9246 27.1213 35.4279 26.1335C36.0001 25.0104 36.0001 23.5403 36.0001 20.6V9.4C36.0001 6.45972 36.0001 4.98959 35.4279 3.86655C34.9246 2.8787 34.1214 2.07555 33.1336 1.57222C32.0105 1 30.5404 1 27.6001 1H9.40012C6.45985 1 4.98971 1 3.86667 1.57222C2.87882 2.07555 2.07567 2.8787 1.57234 3.86655C1.00012 4.98959 1.00012 6.45972 1.00012 9.4V20.6C1.00012 23.5403 1.00012 25.0104 1.57234 26.1335C2.07567 27.1213 2.87882 27.9244 3.86667 28.4278C4.98971 29 6.45985 29 9.40012 29Z" stroke="#2563C8" stroke-width="2" stroke-linecap="round" stroke-linejoin="round"/>
</svg>
