<svg width="24" height="24" viewBox="0 0 24 24" fill="none" xmlns="http://www.w3.org/2000/svg">
<g clip-path="url(#clip0_30789_32265)">
<path d="M13 10L9.5 14L7.5 12M12 21C7.02944 21 3 16.9706 3 12C3 7.02944 7.02944 3 12 3C16.9706 3 21 7.02944 21 12C21 16.9706 16.9706 21 12 21Z" stroke="white" stroke-width="2" stroke-linecap="round" stroke-linejoin="round"/>
<path d="M17 10L13.5 14L13 13.5M4.37891 53.527C3.46947 55.1022 3.01489 55.8901 3.08281 56.5364C3.14206 57.1001 3.43792 57.6122 3.89648 57.9454C4.42204 58.3272 5.3309 58.3272 7.14853 58.3272H16.8515C18.6691 58.3272 19.5778 58.3272 20.1034 57.9454C20.5619 57.6122 20.8579 57.1001 20.9172 56.5364C20.9851 55.8901 20.5307 55.1022 19.6212 53.527L14.7715 45.127C13.8621 43.5518 13.4071 42.7644 12.8135 42.5001C12.2957 42.2695 11.704 42.2695 11.1862 42.5001C10.5928 42.7643 10.1381 43.5517 9.22946 45.1256L4.37891 53.527Z" stroke="white" stroke-width="2" stroke-linecap="round" stroke-linejoin="round"/>
</g>
<defs>
<clipPath id="clip0_30789_32265">
<rect width="24" height="24" fill="white"/>
</clipPath>
</defs>
</svg>
